<svg width="98" height="14" viewBox="0 0 98 14" fill="none" xmlns="http://www.w3.org/2000/svg">
<path d="M26.2031 8.76758C26.2031 8.61523 26.1797 8.47852 26.1328 8.35742C26.0898 8.23242 26.0078 8.11914 25.8867 8.01758C25.7656 7.91211 25.5957 7.80859 25.377 7.70703C25.1582 7.60547 24.875 7.5 24.5273 7.39062C24.1406 7.26562 23.7734 7.125 23.4258 6.96875C23.082 6.8125 22.7773 6.63086 22.5117 6.42383C22.25 6.21289 22.043 5.96875 21.8906 5.69141C21.7422 5.41406 21.668 5.0918 21.668 4.72461C21.668 4.36914 21.7461 4.04688 21.9023 3.75781C22.0586 3.46484 22.2773 3.21484 22.5586 3.00781C22.8398 2.79688 23.1719 2.63477 23.5547 2.52148C23.9414 2.4082 24.3652 2.35156 24.8262 2.35156C25.4551 2.35156 26.0039 2.46484 26.4727 2.69141C26.9414 2.91797 27.3047 3.22852 27.5625 3.62305C27.8242 4.01758 27.9551 4.46875 27.9551 4.97656H26.209C26.209 4.72656 26.1562 4.50781 26.0508 4.32031C25.9492 4.12891 25.793 3.97852 25.582 3.86914C25.375 3.75977 25.1133 3.70508 24.7969 3.70508C24.4922 3.70508 24.2383 3.75195 24.0352 3.8457C23.832 3.93555 23.6797 4.05859 23.5781 4.21484C23.4766 4.36719 23.4258 4.53906 23.4258 4.73047C23.4258 4.875 23.4609 5.00586 23.5312 5.12305C23.6055 5.24023 23.7148 5.34961 23.8594 5.45117C24.0039 5.55273 24.1816 5.64844 24.3926 5.73828C24.6035 5.82812 24.8477 5.91602 25.125 6.00195C25.5898 6.14258 25.998 6.30078 26.3496 6.47656C26.7051 6.65234 27.002 6.84961 27.2402 7.06836C27.4785 7.28711 27.6582 7.53516 27.7793 7.8125C27.9004 8.08984 27.9609 8.4043 27.9609 8.75586C27.9609 9.12695 27.8887 9.45898 27.7441 9.75195C27.5996 10.0449 27.3906 10.293 27.1172 10.4961C26.8438 10.6992 26.5176 10.8535 26.1387 10.959C25.7598 11.0645 25.3359 11.1172 24.8672 11.1172C24.4453 11.1172 24.0293 11.0625 23.6191 10.9531C23.209 10.8398 22.8359 10.6699 22.5 10.4434C22.168 10.2168 21.9023 9.92773 21.7031 9.57617C21.5039 9.22461 21.4043 8.80859 21.4043 8.32812H23.168C23.168 8.59375 23.209 8.81836 23.291 9.00195C23.373 9.18555 23.4883 9.33398 23.6367 9.44727C23.7891 9.56055 23.9688 9.64258 24.1758 9.69336C24.3867 9.74414 24.6172 9.76953 24.8672 9.76953C25.1719 9.76953 25.4219 9.72656 25.6172 9.64062C25.8164 9.55469 25.9629 9.43555 26.0566 9.2832C26.1543 9.13086 26.2031 8.95898 26.2031 8.76758ZM32.625 3.92773L30.3047 11H28.4355L31.6055 2.46875H32.7949L32.625 3.92773ZM34.5527 11L32.2266 3.92773L32.0391 2.46875H33.2402L36.4277 11H34.5527ZM34.4473 7.82422V9.20117H29.9414V7.82422H34.4473ZM42.7031 9.62891V11H38.4082V9.62891H42.7031ZM38.9766 2.46875V11H37.2188V2.46875H38.9766ZM49.4355 9.62891V11H44.8945V9.62891H49.4355ZM45.4688 2.46875V11H43.7109V2.46875H45.4688ZM48.8438 5.94336V7.2793H44.8945V5.94336H48.8438ZM49.4297 2.46875V3.8457H44.8945V2.46875H49.4297ZM54.9023 8.76758C54.9023 8.61523 54.8789 8.47852 54.832 8.35742C54.7891 8.23242 54.707 8.11914 54.5859 8.01758C54.4648 7.91211 54.2949 7.80859 54.0762 7.70703C53.8574 7.60547 53.5742 7.5 53.2266 7.39062C52.8398 7.26562 52.4727 7.125 52.125 6.96875C51.7812 6.8125 51.4766 6.63086 51.2109 6.42383C50.9492 6.21289 50.7422 5.96875 50.5898 5.69141C50.4414 5.41406 50.3672 5.0918 50.3672 4.72461C50.3672 4.36914 50.4453 4.04688 50.6016 3.75781C50.7578 3.46484 50.9766 3.21484 51.2578 3.00781C51.5391 2.79688 51.8711 2.63477 52.2539 2.52148C52.6406 2.4082 53.0645 2.35156 53.5254 2.35156C54.1543 2.35156 54.7031 2.46484 55.1719 2.69141C55.6406 2.91797 56.0039 3.22852 56.2617 3.62305C56.5234 4.01758 56.6543 4.46875 56.6543 4.97656H54.9082C54.9082 4.72656 54.8555 4.50781 54.75 4.32031C54.6484 4.12891 54.4922 3.97852 54.2812 3.86914C54.0742 3.75977 53.8125 3.70508 53.4961 3.70508C53.1914 3.70508 52.9375 3.75195 52.7344 3.8457C52.5312 3.93555 52.3789 4.05859 52.2773 4.21484C52.1758 4.36719 52.125 4.53906 52.125 4.73047C52.125 4.875 52.1602 5.00586 52.2305 5.12305C52.3047 5.24023 52.4141 5.34961 52.5586 5.45117C52.7031 5.55273 52.8809 5.64844 53.0918 5.73828C53.3027 5.82812 53.5469 5.91602 53.8242 6.00195C54.2891 6.14258 54.6973 6.30078 55.0488 6.47656C55.4043 6.65234 55.7012 6.84961 55.9395 7.06836C56.1777 7.28711 56.3574 7.53516 56.4785 7.8125C56.5996 8.08984 56.6602 8.4043 56.6602 8.75586C56.6602 9.12695 56.5879 9.45898 56.4434 9.75195C56.2988 10.0449 56.0898 10.293 55.8164 10.4961C55.543 10.6992 55.2168 10.8535 54.8379 10.959C54.459 11.0645 54.0352 11.1172 53.5664 11.1172C53.1445 11.1172 52.7285 11.0625 52.3184 10.9531C51.9082 10.8398 51.5352 10.6699 51.1992 10.4434C50.8672 10.2168 50.6016 9.92773 50.4023 9.57617C50.2031 9.22461 50.1035 8.80859 50.1035 8.32812H51.8672C51.8672 8.59375 51.9082 8.81836 51.9902 9.00195C52.0723 9.18555 52.1875 9.33398 52.3359 9.44727C52.4883 9.56055 52.668 9.64258 52.875 9.69336C53.0859 9.74414 53.3164 9.76953 53.5664 9.76953C53.8711 9.76953 54.1211 9.72656 54.3164 9.64062C54.5156 9.55469 54.6621 9.43555 54.7559 9.2832C54.8535 9.13086 54.9023 8.95898 54.9023 8.76758ZM65.2852 8.76758C65.2852 8.61523 65.2617 8.47852 65.2148 8.35742C65.1719 8.23242 65.0898 8.11914 64.9688 8.01758C64.8477 7.91211 64.6777 7.80859 64.459 7.70703C64.2402 7.60547 63.957 7.5 63.6094 7.39062C63.2227 7.26562 62.8555 7.125 62.5078 6.96875C62.1641 6.8125 61.8594 6.63086 61.5938 6.42383C61.332 6.21289 61.125 5.96875 60.9727 5.69141C60.8242 5.41406 60.75 5.0918 60.75 4.72461C60.75 4.36914 60.8281 4.04688 60.9844 3.75781C61.1406 3.46484 61.3594 3.21484 61.6406 3.00781C61.9219 2.79688 62.2539 2.63477 62.6367 2.52148C63.0234 2.4082 63.4473 2.35156 63.9082 2.35156C64.5371 2.35156 65.0859 2.46484 65.5547 2.69141C66.0234 2.91797 66.3867 3.22852 66.6445 3.62305C66.9062 4.01758 67.0371 4.46875 67.0371 4.97656H65.291C65.291 4.72656 65.2383 4.50781 65.1328 4.32031C65.0312 4.12891 64.875 3.97852 64.6641 3.86914C64.457 3.75977 64.1953 3.70508 63.8789 3.70508C63.5742 3.70508 63.3203 3.75195 63.1172 3.8457C62.9141 3.93555 62.7617 4.05859 62.6602 4.21484C62.5586 4.36719 62.5078 4.53906 62.5078 4.73047C62.5078 4.875 62.543 5.00586 62.6133 5.12305C62.6875 5.24023 62.7969 5.34961 62.9414 5.45117C63.0859 5.55273 63.2637 5.64844 63.4746 5.73828C63.6855 5.82812 63.9297 5.91602 64.207 6.00195C64.6719 6.14258 65.0801 6.30078 65.4316 6.47656C65.7871 6.65234 66.084 6.84961 66.3223 7.06836C66.5605 7.28711 66.7402 7.53516 66.8613 7.8125C66.9824 8.08984 67.043 8.4043 67.043 8.75586C67.043 9.12695 66.9707 9.45898 66.8262 9.75195C66.6816 10.0449 66.4727 10.293 66.1992 10.4961C65.9258 10.6992 65.5996 10.8535 65.2207 10.959C64.8418 11.0645 64.418 11.1172 63.9492 11.1172C63.5273 11.1172 63.1113 11.0625 62.7012 10.9531C62.291 10.8398 61.918 10.6699 61.582 10.4434C61.25 10.2168 60.9844 9.92773 60.7852 9.57617C60.5859 9.22461 60.4863 8.80859 60.4863 8.32812H62.25C62.25 8.59375 62.291 8.81836 62.373 9.00195C62.4551 9.18555 62.5703 9.33398 62.7188 9.44727C62.8711 9.56055 63.0508 9.64258 63.2578 9.69336C63.4688 9.74414 63.6992 9.76953 63.9492 9.76953C64.2539 9.76953 64.5039 9.72656 64.6992 9.64062C64.8984 9.55469 65.0449 9.43555 65.1387 9.2832C65.2363 9.13086 65.2852 8.95898 65.2852 8.76758ZM72.0527 2.46875V11H70.3008V2.46875H72.0527ZM74.6777 2.46875V3.8457H67.7168V2.46875H74.6777ZM82.5234 6.53516V6.93945C82.5234 7.58789 82.4355 8.16992 82.2598 8.68555C82.084 9.20117 81.8359 9.64062 81.5156 10.0039C81.1953 10.3633 80.8125 10.6387 80.3672 10.8301C79.9258 11.0215 79.4355 11.1172 78.8965 11.1172C78.3613 11.1172 77.8711 11.0215 77.4258 10.8301C76.9844 10.6387 76.6016 10.3633 76.2773 10.0039C75.9531 9.64062 75.7012 9.20117 75.5215 8.68555C75.3457 8.16992 75.2578 7.58789 75.2578 6.93945V6.53516C75.2578 5.88281 75.3457 5.30078 75.5215 4.78906C75.6973 4.27344 75.9453 3.83398 76.2656 3.4707C76.5898 3.10742 76.9727 2.83008 77.4141 2.63867C77.8594 2.44727 78.3496 2.35156 78.8848 2.35156C79.4238 2.35156 79.9141 2.44727 80.3555 2.63867C80.8008 2.83008 81.1836 3.10742 81.5039 3.4707C81.8281 3.83398 82.0781 4.27344 82.2539 4.78906C82.4336 5.30078 82.5234 5.88281 82.5234 6.53516ZM80.748 6.93945V6.52344C80.748 6.07031 80.707 5.67188 80.625 5.32812C80.543 4.98438 80.4219 4.69531 80.2617 4.46094C80.1016 4.22656 79.9062 4.05078 79.6758 3.93359C79.4453 3.8125 79.1816 3.75195 78.8848 3.75195C78.5879 3.75195 78.3242 3.8125 78.0938 3.93359C77.8672 4.05078 77.6738 4.22656 77.5137 4.46094C77.3574 4.69531 77.2383 4.98438 77.1562 5.32812C77.0742 5.67188 77.0332 6.07031 77.0332 6.52344V6.93945C77.0332 7.38867 77.0742 7.78711 77.1562 8.13477C77.2383 8.47852 77.3594 8.76953 77.5195 9.00781C77.6797 9.24219 77.875 9.41992 78.1055 9.54102C78.3359 9.66211 78.5996 9.72266 78.8965 9.72266C79.1934 9.72266 79.457 9.66211 79.6875 9.54102C79.918 9.41992 80.1113 9.24219 80.2676 9.00781C80.4238 8.76953 80.543 8.47852 80.625 8.13477C80.707 7.78711 80.748 7.38867 80.748 6.93945ZM83.7891 2.46875H86.9707C87.623 2.46875 88.1836 2.56641 88.6523 2.76172C89.125 2.95703 89.4883 3.24609 89.7422 3.62891C89.9961 4.01172 90.123 4.48242 90.123 5.04102C90.123 5.49805 90.0449 5.89062 89.8887 6.21875C89.7363 6.54297 89.5195 6.81445 89.2383 7.0332C88.9609 7.24805 88.6348 7.41992 88.2598 7.54883L87.7031 7.8418H84.9375L84.9258 6.4707H86.9824C87.291 6.4707 87.5469 6.41602 87.75 6.30664C87.9531 6.19727 88.1055 6.04492 88.207 5.84961C88.3125 5.6543 88.3652 5.42773 88.3652 5.16992C88.3652 4.89648 88.3145 4.66016 88.2129 4.46094C88.1113 4.26172 87.957 4.10938 87.75 4.00391C87.543 3.89844 87.2832 3.8457 86.9707 3.8457H85.5469V11H83.7891V2.46875ZM88.5586 11L86.6133 7.19727L88.4707 7.18555L90.4395 10.918V11H88.5586ZM97.2012 9.62891V11H92.6602V9.62891H97.2012ZM93.2344 2.46875V11H91.4766V2.46875H93.2344ZM96.6094 5.94336V7.2793H92.6602V5.94336H96.6094ZM97.1953 2.46875V3.8457H92.6602V2.46875H97.1953Z" fill="white"/>
<path d="M10.1641 8.41602C10.1641 8.26367 10.1406 8.12695 10.0938 8.00586C10.0508 7.88086 9.96875 7.76758 9.84766 7.66602C9.72656 7.56055 9.55664 7.45703 9.33789 7.35547C9.11914 7.25391 8.83594 7.14844 8.48828 7.03906C8.10156 6.91406 7.73438 6.77344 7.38672 6.61719C7.04297 6.46094 6.73828 6.2793 6.47266 6.07227C6.21094 5.86133 6.00391 5.61719 5.85156 5.33984C5.70312 5.0625 5.62891 4.74023 5.62891 4.37305C5.62891 4.01758 5.70703 3.69531 5.86328 3.40625C6.01953 3.11328 6.23828 2.86328 6.51953 2.65625C6.80078 2.44531 7.13281 2.2832 7.51562 2.16992C7.90234 2.05664 8.32617 2 8.78711 2C9.41602 2 9.96484 2.11328 10.4336 2.33984C10.9023 2.56641 11.2656 2.87695 11.5234 3.27148C11.7852 3.66602 11.916 4.11719 11.916 4.625H10.1699C10.1699 4.375 10.1172 4.15625 10.0117 3.96875C9.91016 3.77734 9.75391 3.62695 9.54297 3.51758C9.33594 3.4082 9.07422 3.35352 8.75781 3.35352C8.45312 3.35352 8.19922 3.40039 7.99609 3.49414C7.79297 3.58398 7.64062 3.70703 7.53906 3.86328C7.4375 4.01562 7.38672 4.1875 7.38672 4.37891C7.38672 4.52344 7.42188 4.6543 7.49219 4.77148C7.56641 4.88867 7.67578 4.99805 7.82031 5.09961C7.96484 5.20117 8.14258 5.29688 8.35352 5.38672C8.56445 5.47656 8.80859 5.56445 9.08594 5.65039C9.55078 5.79102 9.95898 5.94922 10.3105 6.125C10.666 6.30078 10.9629 6.49805 11.2012 6.7168C11.4395 6.93555 11.6191 7.18359 11.7402 7.46094C11.8613 7.73828 11.9219 8.05273 11.9219 8.4043C11.9219 8.77539 11.8496 9.10742 11.7051 9.40039C11.5605 9.69336 11.3516 9.94141 11.0781 10.1445C10.8047 10.3477 10.4785 10.502 10.0996 10.6074C9.7207 10.7129 9.29688 10.7656 8.82812 10.7656C8.40625 10.7656 7.99023 10.7109 7.58008 10.6016C7.16992 10.4883 6.79688 10.3184 6.46094 10.0918C6.12891 9.86523 5.86328 9.57617 5.66406 9.22461C5.46484 8.87305 5.36523 8.45703 5.36523 7.97656H7.12891C7.12891 8.24219 7.16992 8.4668 7.25195 8.65039C7.33398 8.83398 7.44922 8.98242 7.59766 9.0957C7.75 9.20898 7.92969 9.29102 8.13672 9.3418C8.34766 9.39258 8.57812 9.41797 8.82812 9.41797C9.13281 9.41797 9.38281 9.375 9.57812 9.28906C9.77734 9.20312 9.92383 9.08398 10.0176 8.93164C10.1152 8.7793 10.1641 8.60742 10.1641 8.41602Z" fill="white"/>
<path d="M1.75781 8.41602C1.75781 8.26367 1.78125 8.12695 1.82812 8.00586C1.87109 7.88086 1.95312 7.76758 2.07422 7.66602C2.19531 7.56055 2.36523 7.45703 2.58398 7.35547C2.80273 7.25391 3.08594 7.14844 3.43359 7.03906C3.82031 6.91406 4.1875 6.77344 4.53516 6.61719C4.87891 6.46094 5.18359 6.2793 5.44922 6.07227C5.71094 5.86133 5.91797 5.61719 6.07031 5.33984C6.21875 5.0625 6.29297 4.74023 6.29297 4.37305C6.29297 4.01758 6.21484 3.69531 6.05859 3.40625C5.90234 3.11328 5.68359 2.86328 5.40234 2.65625C5.12109 2.44531 4.78906 2.2832 4.40625 2.16992C4.01953 2.05664 3.5957 2 3.13477 2C2.50586 2 1.95703 2.11328 1.48828 2.33984C1.01953 2.56641 0.65625 2.87695 0.398438 3.27148C0.136719 3.66602 0.00585938 4.11719 0.00585938 4.625H1.75195C1.75195 4.375 1.80469 4.15625 1.91016 3.96875C2.01172 3.77734 2.16797 3.62695 2.37891 3.51758C2.58594 3.4082 2.84766 3.35352 3.16406 3.35352C3.46875 3.35352 3.72266 3.40039 3.92578 3.49414C4.12891 3.58398 4.28125 3.70703 4.38281 3.86328C4.48438 4.01562 4.53516 4.1875 4.53516 4.37891C4.53516 4.52344 4.5 4.6543 4.42969 4.77148C4.35547 4.88867 4.24609 4.99805 4.10156 5.09961C3.95703 5.20117 3.7793 5.29688 3.56836 5.38672C3.35742 5.47656 3.11328 5.56445 2.83594 5.65039C2.37109 5.79102 1.96289 5.94922 1.61133 6.125C1.25586 6.30078 0.958984 6.49805 0.720703 6.7168C0.482422 6.93555 0.302734 7.18359 0.181641 7.46094C0.0605469 7.73828 0 8.05273 0 8.4043C0 8.77539 0.0722656 9.10742 0.216797 9.40039C0.361328 9.69336 0.570312 9.94141 0.84375 10.1445C1.11719 10.3477 1.44336 10.502 1.82227 10.6074C2.20117 10.7129 2.625 10.7656 3.09375 10.7656C3.51562 10.7656 3.93164 10.7109 4.3418 10.6016C4.75195 10.4883 5.125 10.3184 5.46094 10.0918C5.79297 9.86523 6.05859 9.57617 6.25781 9.22461C6.45703 8.87305 6.55664 8.45703 6.55664 7.97656H4.79297C4.79297 8.24219 4.75195 8.4668 4.66992 8.65039C4.58789 8.83398 4.47266 8.98242 4.32422 9.0957C4.17188 9.20898 3.99219 9.29102 3.78516 9.3418C3.57422 9.39258 3.34375 9.41797 3.09375 9.41797C2.78906 9.41797 2.53906 9.375 2.34375 9.28906C2.14453 9.20312 1.99805 9.08398 1.9043 8.93164C1.80664 8.7793 1.75781 8.60742 1.75781 8.41602Z" fill="white"/>
<rect x="16" y="2" width="1" height="9" fill="white" fill-opacity="0.4"/>
</svg>
