<svg width="199" height="160" viewBox="0 0 199 160" fill="none" xmlns="http://www.w3.org/2000/svg">
<path d="M176.518 60.5618H176.456L140.558 75.8903L91.4425 96.863C91.2505 96.9438 91.0446 96.9859 90.8364 96.9869C90.6282 96.988 90.4218 96.948 90.2291 96.8693L39.5563 75.8465L2.77666 60.5868L2.72048 60.5618H2.6579C2.07757 60.5625 1.52118 60.7933 1.11082 61.2036C0.700466 61.614 0.469637 62.1704 0.468994 62.7507V157.811C0.469637 158.391 0.700466 158.948 1.11082 159.358C1.52118 159.769 2.07757 159.999 2.6579 160H176.518C177.099 159.999 177.655 159.769 178.065 159.358C178.476 158.948 178.707 158.391 178.707 157.811V62.7507C178.707 62.1704 178.476 61.614 178.065 61.2036C177.655 60.7933 177.099 60.5625 176.518 60.5618V60.5618Z" fill="white"/>
<path d="M176.675 61.1872C176.611 61.1873 176.548 61.1677 176.496 61.1312L90.0165 0.904332C89.7534 0.721903 89.4407 0.624407 89.1204 0.624953C88.8002 0.625499 88.4878 0.724056 88.2252 0.907382L2.36859 61.1306C2.30067 61.1779 2.21678 61.1963 2.1353 61.1818C2.05382 61.1674 1.9814 61.1212 1.93388 61.0535C1.88636 60.9857 1.86766 60.9019 1.88181 60.8204C1.89596 60.7388 1.94183 60.6662 2.0094 60.6185L87.8661 0.3953C88.2337 0.138686 88.6711 0.000739936 89.1194 2.96835e-06C89.5677 -0.000734 90.0055 0.135774 90.374 0.391178L176.854 60.6179C176.908 60.656 176.949 60.7105 176.971 60.7735C176.992 60.8365 176.993 60.9047 176.973 60.9683C176.953 61.0318 176.913 61.0873 176.86 61.1267C176.806 61.166 176.741 61.1873 176.675 61.1872H176.675Z" fill="#161519"/>
<path d="M7.27441 63.3224L89.2049 2.60156L171.758 67.6427L93.4264 114.078L50.8995 104.385L7.27441 63.3224Z" fill="#E6E6E6"/>
<path d="M54.4895 142.76H14.0137C13.5121 142.76 13.0309 142.562 12.6757 142.208C12.3206 141.854 12.1206 141.373 12.1199 140.872C12.1191 140.37 12.3176 139.889 12.6718 139.534C13.0259 139.178 13.5066 138.978 14.0081 138.978H54.4895C54.991 138.977 55.4723 139.175 55.8275 139.53C56.1826 139.884 56.3826 140.364 56.3833 140.866C56.384 141.367 56.1855 141.849 55.8314 142.204C55.4773 142.559 54.9966 142.759 54.4951 142.76H54.4895Z" fill="#83B735"/>
<path d="M28.5354 134.63H14.0136C13.5123 134.63 13.0313 134.431 12.6765 134.077C12.3216 133.723 12.1218 133.243 12.1211 132.741C12.1204 132.24 12.3187 131.759 12.6725 131.404C13.0263 131.049 13.5067 130.849 14.008 130.848H28.5354C28.7838 130.847 29.03 130.895 29.2597 130.99C29.4894 131.085 29.6982 131.224 29.8742 131.399C30.0502 131.574 30.1899 131.783 30.2854 132.012C30.3808 132.241 30.4301 132.487 30.4305 132.736C30.4309 132.984 30.3823 133.23 30.2875 133.46C30.1927 133.69 30.0536 133.898 29.8781 134.074C29.7027 134.25 29.4943 134.39 29.2649 134.485C29.0354 134.58 28.7894 134.629 28.541 134.63H28.5354Z" fill="#83B735"/>
<path d="M90.3573 97.1429C90.0497 97.1432 89.7449 97.0835 89.4601 96.9672L38.9309 76.0011V10.3738C38.9316 9.79344 39.1624 9.23709 39.5728 8.82674C39.9831 8.41639 40.5395 8.18555 41.1198 8.18488H138.056C138.637 8.18555 139.193 8.41639 139.603 8.82674C140.014 9.23709 140.245 9.79344 140.245 10.3738V76.0469L140.15 76.0875L91.2817 96.9569C90.989 97.0799 90.6748 97.1432 90.3573 97.1429V97.1429Z" fill="white"/>
<path d="M90.3574 97.299C90.0294 97.2994 89.7044 97.2358 89.4007 97.1118L38.7747 76.1055V10.3737C38.7754 9.7519 39.0227 9.15579 39.4623 8.71612C39.902 8.27646 40.4981 8.02915 41.1199 8.02844H138.057C138.678 8.02915 139.274 8.27646 139.714 8.71612C140.154 9.15579 140.401 9.7519 140.402 10.3737V76.15L91.3432 97.1006C91.0311 97.2318 90.696 97.2993 90.3574 97.299V97.299ZM39.4 75.6877L89.6392 96.5336C90.1078 96.7238 90.6326 96.7206 91.0989 96.5249L139.776 75.7372V10.3737C139.776 9.91772 139.594 9.48059 139.272 9.15818C138.95 8.83577 138.512 8.65441 138.057 8.65387H41.1199C40.6639 8.65441 40.2268 8.83577 39.9044 9.15818C39.582 9.48059 39.4006 9.91772 39.4001 10.3737L39.4 75.6877Z" fill="#161519"/>
<path d="M176.049 60.5618H175.987L140.089 75.8903L90.9735 96.863C90.7816 96.9438 90.5756 96.9859 90.3674 96.9869C90.1592 96.988 89.9528 96.948 89.7601 96.8693L39.0874 75.8465L2.3077 60.5868L2.25149 60.5618H2.18888C1.60854 60.5625 1.05219 60.7933 0.641829 61.2036C0.231472 61.614 0.000643276 62.1704 0 62.7507V157.811C0.000643276 158.391 0.231472 158.948 0.641829 159.358C1.05219 159.769 1.60854 159.999 2.18888 160H176.049C176.63 159.999 177.186 159.769 177.596 159.358C178.007 158.948 178.238 158.391 178.238 157.811V62.7507C178.238 62.1704 178.007 61.614 177.596 61.2036C177.186 60.7933 176.63 60.5625 176.049 60.5618V60.5618ZM177.613 157.811C177.613 158.226 177.448 158.623 177.155 158.916C176.862 159.21 176.464 159.374 176.049 159.375H2.18888C1.77426 159.374 1.37667 159.21 1.0835 158.916C0.790321 158.623 0.625568 158.226 0.625402 157.811V62.7507C0.625969 62.3464 0.782775 61.9579 1.06309 61.6666C1.3434 61.3752 1.72549 61.2034 2.12948 61.1872L39.0874 76.522L89.5195 97.4478C90.0654 97.6699 90.6771 97.6665 91.2205 97.4384L140.089 76.5689L176.112 61.1872C176.515 61.2046 176.896 61.3769 177.176 61.6681C177.455 61.9593 177.612 62.3471 177.613 62.7507V157.811Z" fill="#161519"/>
<path d="M82.4909 32.7165H48.094C47.4312 32.7156 46.7958 32.4516 46.3274 31.9825C45.859 31.5135 45.5959 30.8778 45.5959 30.2149C45.5959 29.5521 45.859 28.9163 46.3274 28.4473C46.7958 27.9782 47.4312 27.7143 48.094 27.7133H82.4909C83.1537 27.7143 83.7891 27.9782 84.2575 28.4473C84.7258 28.9163 84.9889 29.5521 84.9889 30.2149C84.9889 30.8778 84.7258 31.5135 84.2575 31.9825C83.7891 32.4516 83.1537 32.7156 82.4909 32.7165V32.7165Z" fill="#83B735"/>
<path d="M64.6671 22.0848H48.0941C47.4306 22.0848 46.7944 21.8212 46.3252 21.3521C45.8561 20.8829 45.5925 20.2467 45.5925 19.5832C45.5925 18.9197 45.8561 18.2834 46.3252 17.8143C46.7944 17.3452 47.4306 17.0816 48.0941 17.0816H64.6671C65.3306 17.0816 65.9669 17.3452 66.436 17.8143C66.9052 18.2834 67.1687 18.9197 67.1687 19.5832C67.1687 20.2467 66.9052 20.8829 66.436 21.3521C65.9669 21.8212 65.3306 22.0848 64.6671 22.0848V22.0848Z" fill="#83B735"/>
<path d="M115.314 57.7324H62.781C62.1181 57.7314 61.4828 57.4675 61.0144 56.9984C60.546 56.5294 60.283 55.8936 60.283 55.2308C60.283 54.5679 60.546 53.9322 61.0144 53.4631C61.4828 52.9941 62.1181 52.7301 62.781 52.7292H115.314C115.977 52.7301 116.613 52.9941 117.081 53.4631C117.549 53.9322 117.812 54.5679 117.812 55.2308C117.812 55.8936 117.549 56.5294 117.081 56.9984C116.613 57.4675 115.977 57.7314 115.314 57.7324V57.7324Z" fill="#CCCCCC"/>
<path d="M115.315 69.3022H62.7814C62.1179 69.3022 61.4816 69.0387 61.0125 68.5696C60.5433 68.1004 60.2798 67.4641 60.2798 66.8007C60.2798 66.1372 60.5433 65.5009 61.0125 65.0318C61.4816 64.5626 62.1179 64.2991 62.7814 64.2991H115.315C115.978 64.2991 116.615 64.5626 117.084 65.0318C117.553 65.5009 117.816 66.1372 117.816 66.8007C117.816 67.4641 117.553 68.1004 117.084 68.5696C116.615 69.0387 115.978 69.3022 115.315 69.3022V69.3022Z" fill="#CCCCCC"/>
<path d="M175.08 85.2551C188.217 85.2551 198.867 74.6054 198.867 61.4683C198.867 48.3311 188.217 37.6814 175.08 37.6814C161.943 37.6814 151.293 48.3311 151.293 61.4683C151.293 74.6054 161.943 85.2551 175.08 85.2551Z" fill="#83B735"/>
<path d="M172.813 71.5096L165.694 62.3552L169.834 59.135L173.205 63.4694L184.593 51.4478L188.401 55.0556L172.813 71.5096Z" fill="white"/>
</svg>
