<svg width="170" height="145" viewBox="0 0 170 145" fill="none" xmlns="http://www.w3.org/2000/svg">
<path d="M139.238 144.958L18.7729 145C12.721 145.002 7.29999 141.854 4.27225 136.58C2.75819 133.942 2.001 131.049 2 128.155C1.999 125.262 2.75458 122.367 4.26646 119.729L64.4605 9.43024C67.485 4.15337 72.9039 1.00211 78.9558 1C85.0076 0.997895 90.4287 4.14538 93.4568 9.42015L153.734 119.691C155.244 122.321 156 125.211 156 128.103C156 130.995 155.245 133.889 153.732 136.528C150.708 141.804 145.289 144.956 139.238 144.958ZM3.81425 127.855C3.81406 130.489 17.1069 126.813 18.4841 129.213C21.2387 134.011 13.5665 143.183 19.0724 143.181C19.0724 143.181 149.672 140.568 152.424 135.768C153.799 133.368 154.487 130.735 154.486 128.102C154.485 125.469 153.796 122.837 152.418 120.438L92.1405 18.9612C89.3936 14.1764 84.4622 11.3128 78.9563 11.3147C73.4529 11.3167 3.81446 125.221 3.81425 127.855Z" fill="#E6E6E6"/>
<path d="M139.476 144.958L17.442 145C11.3114 145.002 5.8197 141.832 2.75253 136.521C1.21875 133.866 0.451695 130.952 0.450685 128.038C0.449674 125.125 1.21509 122.21 2.74666 119.554L63.7247 8.48942C66.7885 3.17593 72.278 0.00279344 78.4087 0.000672451C84.5394 -0.00144854 90.031 3.16788 93.0986 8.47925L154.161 119.515C155.691 122.164 156.456 125.074 156.456 127.986C156.456 130.898 155.691 133.812 154.159 136.469C151.096 141.782 145.606 144.956 139.476 144.958H139.476H139.476ZM1.98466 128.036C1.98446 130.688 15.4505 124.973 16.8455 127.389C19.636 132.221 11.8639 143.471 17.4415 143.469C17.4415 143.469 150.046 140.537 152.833 135.704C154.227 133.287 154.923 130.636 154.922 127.985C154.921 125.334 154.223 122.683 152.828 120.267L91.7651 9.23159C88.9825 4.41364 83.9868 1.53015 78.4092 1.53208C72.8342 1.53401 1.98485 125.383 1.98464 128.036H1.98466V128.036Z" fill="#3F3D56"/>
<path d="M114.018 120.464C144.873 120.464 169.885 95.4386 169.885 64.5679C169.885 33.6973 144.873 8.67169 114.018 8.67169C83.1631 8.67169 58.1504 33.6973 58.1504 64.5679C58.1504 95.4386 83.1631 120.464 114.018 120.464Z" fill="#F44336"/>
<path d="M114.028 98.833C116.861 98.833 119.158 96.5352 119.158 93.7008C119.158 90.8663 116.861 88.5685 114.028 88.5685C111.195 88.5685 108.898 90.8663 108.898 93.7008C108.898 96.5352 111.195 98.833 114.028 98.833Z" fill="white"/>
<path d="M114.006 30.3027C113.535 33.4354 114.379 34.0909 114.384 47.5962C114.388 61.1015 117.189 79.2088 114.023 79.2098C110.857 79.2109 109.699 41.8415 98.7039 38.5341C85.7772 34.6455 115.531 20.1618 114.006 30.3027V30.3027Z" fill="white"/>
</svg>
