<svg width="178" height="160" viewBox="0 0 178 160" fill="none" xmlns="http://www.w3.org/2000/svg">
<path d="M176.218 61.1872C176.154 61.1873 176.092 61.1677 176.04 61.1312L89.7839 0.904351C89.5214 0.721923 89.2095 0.624429 88.8901 0.624976C88.5707 0.625522 88.2592 0.72408 87.9973 0.907404L2.36242 61.1306C2.29469 61.1782 2.21086 61.1969 2.12937 61.1826C2.04788 61.1683 1.97541 61.122 1.9279 61.0541C1.88039 60.9862 1.86173 60.9022 1.87604 60.8205C1.89034 60.7388 1.93642 60.6661 2.00416 60.6185L87.6391 0.395299C88.0057 0.138683 88.442 0.000739727 88.8891 2.96675e-06C89.3363 -0.000733793 89.7729 0.13577 90.1404 0.391177L176.397 60.6179C176.451 60.6559 176.492 60.7105 176.513 60.7735C176.535 60.8365 176.536 60.9047 176.516 60.9682C176.496 61.0318 176.456 61.0873 176.403 61.1267C176.349 61.166 176.285 61.1873 176.218 61.1872L176.218 61.1872Z" fill="#161519"/>
<path d="M7.25586 63.3221L88.975 2.60132L171.314 67.6426L93.1855 114.078L50.7684 104.385L7.25586 63.3221Z" fill="#E6E6E6"/>
<path d="M54.3487 142.76H13.9774C13.7295 142.76 13.484 142.711 13.2549 142.616C13.0258 142.522 12.8176 142.382 12.6422 142.207C12.4668 142.031 12.3276 141.823 12.2327 141.593C12.1377 141.363 12.0889 141.117 12.0889 140.869C12.0889 140.62 12.1377 140.374 12.2327 140.145C12.3276 139.915 12.4668 139.706 12.6422 139.531C12.8176 139.355 13.0258 139.216 13.2549 139.121C13.484 139.026 13.7295 138.977 13.9774 138.978H54.3487C54.5966 138.977 54.8421 139.026 55.0712 139.121C55.3003 139.216 55.5085 139.355 55.6839 139.531C55.8593 139.706 55.9985 139.915 56.0934 140.145C56.1883 140.374 56.2372 140.62 56.2372 140.869C56.2372 141.117 56.1883 141.363 56.0934 141.593C55.9985 141.823 55.8593 142.031 55.6839 142.207C55.5085 142.382 55.3003 142.522 55.0712 142.616C54.8421 142.711 54.5966 142.76 54.3487 142.76V142.76Z" fill="#83B735"/>
<path d="M28.4617 134.63H13.9774C13.7295 134.63 13.484 134.581 13.2549 134.486C13.0258 134.391 12.8176 134.252 12.6422 134.077C12.4668 133.901 12.3276 133.692 12.2327 133.463C12.1377 133.233 12.0889 132.987 12.0889 132.739C12.0889 132.49 12.1377 132.244 12.2327 132.014C12.3276 131.785 12.4668 131.576 12.6422 131.401C12.8176 131.225 13.0258 131.086 13.2549 130.991C13.484 130.896 13.7295 130.847 13.9774 130.848H28.4617C28.7096 130.847 28.9551 130.896 29.1843 130.991C29.4134 131.086 29.6216 131.225 29.797 131.401C29.9724 131.576 30.1115 131.785 30.2065 132.014C30.3014 132.244 30.3503 132.49 30.3503 132.739C30.3503 132.987 30.3014 133.233 30.2065 133.463C30.1115 133.692 29.9724 133.901 29.797 134.077C29.6216 134.252 29.4134 134.391 29.1843 134.486C28.9551 134.581 28.7096 134.63 28.4617 134.63Z" fill="#83B735"/>
<path d="M90.1241 97.1428C89.8173 97.1431 89.5133 97.0834 89.2293 96.967L38.8306 76.001V10.3736C38.8312 9.79332 39.0615 9.23696 39.4708 8.82661C39.88 8.41626 40.435 8.18543 41.0138 8.18475H137.7C138.279 8.18543 138.834 8.41626 139.243 8.82661C139.652 9.23696 139.883 9.79332 139.883 10.3736V76.0468L139.788 76.0874L91.0461 96.9568C90.7542 97.0798 90.4407 97.143 90.1241 97.1428Z" fill="white"/>
<path d="M90.1241 97.299C89.7969 97.2994 89.4727 97.2358 89.1698 97.1118L38.6746 76.1054V10.3737C38.6753 9.7519 38.9219 9.15579 39.3605 8.71613C39.799 8.27646 40.3936 8.02915 41.0137 8.02844H137.7C138.32 8.02915 138.915 8.27646 139.353 8.71613C139.792 9.15579 140.038 9.7519 140.039 10.3737V76.15L91.1072 97.1005C90.796 97.2318 90.4617 97.2993 90.1241 97.299V97.299ZM39.2983 75.6877L89.4077 96.5336C89.8751 96.7237 90.3985 96.7206 90.8636 96.5249L139.415 75.7372V10.3737C139.415 9.91772 139.234 9.48058 138.912 9.15817C138.591 8.83575 138.155 8.65438 137.7 8.65384H41.0138C40.559 8.65438 40.123 8.83575 39.8014 9.15817C39.4798 9.48058 39.2989 9.91772 39.2984 10.3737L39.2983 75.6877Z" fill="#161519"/>
<path d="M175.595 60.5618H175.532L139.727 75.8903L90.7385 96.863C90.547 96.9437 90.3416 96.9858 90.134 96.9869C89.9263 96.988 89.7204 96.948 89.5282 96.8693L38.9864 75.8465L2.30172 60.5868L2.24567 60.5618H2.18324C1.6044 60.5625 1.04946 60.7933 0.640162 61.2036C0.230865 61.614 0.000642261 62.1704 0 62.7507V157.811C0.000643085 158.391 0.230866 158.948 0.640162 159.358C1.04946 159.769 1.6044 159.999 2.18324 160H175.595C176.173 159.999 176.728 159.769 177.138 159.358C177.547 158.948 177.777 158.391 177.778 157.811V62.7507C177.777 62.1704 177.547 61.614 177.138 61.2036C176.728 60.7933 176.173 60.5625 175.595 60.5618V60.5618ZM177.154 157.811C177.154 158.226 176.989 158.623 176.697 158.916C176.405 159.21 176.008 159.374 175.595 159.375H2.18324C1.76969 159.374 1.37314 159.21 1.08072 158.916C0.788301 158.623 0.623947 158.226 0.623782 157.811V62.7507C0.624347 62.3464 0.780775 61.9579 1.06036 61.6666C1.33995 61.3752 1.72104 61.2034 2.12399 61.1872L38.9864 76.522L89.2882 97.4478C89.8327 97.6699 90.4428 97.6665 90.9849 97.4384L139.727 76.5689L175.657 61.1872C176.059 61.2046 176.439 61.3769 176.718 61.6681C176.997 61.9593 177.153 62.3471 177.154 62.7507V157.811Z" fill="#161519"/>
<path d="M89.6204 78.5333C87.7599 78.5368 85.9486 77.9336 84.4599 76.8147L84.3676 76.7452L64.9334 61.8271C64.0334 61.1357 63.278 60.2734 62.7103 59.2893C62.1427 58.3052 61.774 57.2186 61.6252 56.0917C61.4764 54.9647 61.5505 53.8194 61.8432 52.7211C62.1359 51.6229 62.6414 50.5932 63.331 49.6908C64.0207 48.7884 64.8808 48.0311 65.8623 47.462C66.8439 46.8929 67.9276 46.5232 69.0517 46.374C70.1757 46.2248 71.3181 46.2991 72.4135 46.5925C73.5089 46.886 74.536 47.3929 75.436 48.0843L88.0241 57.7616L117.772 18.866C118.461 17.9639 119.322 17.2068 120.304 16.6381C121.285 16.0693 122.369 15.7 123.493 15.5513C124.617 15.4025 125.76 15.4772 126.855 15.771C127.95 16.0649 128.977 16.5722 129.877 17.2639L129.692 17.5157L129.882 17.2676C131.697 18.6661 132.884 20.7294 133.184 23.0048C133.484 25.2801 132.871 27.5817 131.48 29.4045L96.4896 75.155C95.6804 76.2092 94.6398 77.0624 93.4485 77.6483C92.2572 78.2342 90.9473 78.537 89.6204 78.5333V78.5333Z" fill="#83B735"/>
</svg>
