<svg width="20" height="15" viewBox="0 0 20 15" fill="none" xmlns="http://www.w3.org/2000/svg">
<path d="M16.5944 10.7404C16.5944 10.4917 16.556 10.2684 16.4796 10.0707C16.4094 9.86666 16.2755 9.68172 16.0778 9.5159C15.8801 9.34371 15.6026 9.1747 15.2455 9.00888C14.8884 8.84307 14.426 8.67087 13.8584 8.4923C13.227 8.28821 12.6275 8.05863 12.0599 7.80353C11.4987 7.54843 11.0012 7.25187 10.5676 6.91386C10.1403 6.56947 9.80226 6.17087 9.55353 5.71806C9.31118 5.26526 9.19002 4.7391 9.19002 4.13963C9.19002 3.55927 9.31756 3.03311 9.57266 2.56118C9.82777 2.08286 10.1849 1.6747 10.6441 1.33669C11.1033 0.992295 11.6454 0.727626 12.2704 0.542679C12.9017 0.357732 13.5937 0.265259 14.3463 0.265259C15.3731 0.265259 16.2691 0.450206 17.0344 0.820099C17.7996 1.19001 18.3928 1.69701 18.8137 2.34114C19.2411 2.98529 19.4547 3.7219 19.4547 4.55097H16.6039C16.6039 4.14281 16.5178 3.78567 16.3456 3.47954C16.1798 3.16704 15.9247 2.9215 15.5803 2.74294C15.2423 2.56436 14.815 2.47509 14.2984 2.47509C13.801 2.47509 13.3864 2.55161 13.0548 2.70467C12.7232 2.85135 12.4744 3.05225 12.3086 3.30735C12.1428 3.55607 12.0599 3.83669 12.0599 4.14919C12.0599 4.38516 12.1173 4.59881 12.2321 4.79012C12.3533 4.98145 12.5318 5.16003 12.7678 5.32585C13.0038 5.49166 13.294 5.64792 13.6384 5.7946C13.9827 5.94128 14.3813 6.08477 14.8341 6.22508C15.5931 6.45468 16.2595 6.71296 16.8334 6.99995C17.4138 7.28694 17.8986 7.60901 18.2876 7.96616C18.6767 8.3233 18.9699 8.72826 19.1676 9.18108C19.3653 9.63388 19.4643 10.1473 19.4643 10.7213C19.4643 11.3271 19.3462 11.8692 19.1103 12.3475C18.8742 12.8258 18.5332 13.2308 18.0867 13.5624C17.6403 13.8942 17.1077 14.1461 16.4891 14.3182C15.8705 14.4904 15.1785 14.5764 14.4132 14.5764C13.7245 14.5764 13.0452 14.4871 12.3756 14.3087C11.706 14.1237 11.0969 13.8463 10.5484 13.4764C10.0063 13.1064 9.57266 12.6345 9.24741 12.0605C8.92215 11.4866 8.75952 10.8073 8.75952 10.0229H11.639C11.639 10.4566 11.706 10.8233 11.8399 11.123C11.9738 11.4228 12.162 11.6651 12.4043 11.8501C12.653 12.035 12.9464 12.169 13.2844 12.2519C13.6288 12.3348 14.0051 12.3762 14.4132 12.3762C14.9107 12.3762 15.3188 12.3061 15.6377 12.1658C15.963 12.0255 16.2021 11.8309 16.3552 11.5822C16.5146 11.3335 16.5944 11.0529 16.5944 10.7404Z" fill="white"/>
<path d="M2.86989 10.7404C2.86989 10.4917 2.90816 10.2684 2.98469 10.0707C3.05484 9.86666 3.18877 9.68172 3.38648 9.5159C3.58418 9.34371 3.8616 9.1747 4.21874 9.00888C4.57589 8.84307 5.03827 8.67087 5.60586 8.4923C6.23724 8.28821 6.83674 8.05863 7.40434 7.80353C7.96557 7.54843 8.463 7.25187 8.89669 6.91386C9.32398 6.56947 9.66199 6.17087 9.91071 5.71806C10.1531 5.26526 10.2742 4.7391 10.2742 4.13963C10.2742 3.55927 10.1467 3.03311 9.89158 2.56118C9.63647 2.08286 9.27933 1.6747 8.82015 1.33669C8.36096 0.992295 7.81887 0.727626 7.19388 0.542679C6.5625 0.357732 5.87053 0.265259 5.11799 0.265259C4.0912 0.265259 3.19515 0.450206 2.42985 0.820099C1.66454 1.19001 1.07143 1.69701 0.650511 2.34114C0.223215 2.98529 0.00956634 3.7219 0.00956634 4.55097H2.86033C2.86033 4.14281 2.94643 3.78567 3.11863 3.47954C3.28444 3.16704 3.53954 2.9215 3.88393 2.74294C4.22194 2.56436 4.64924 2.47509 5.16581 2.47509C5.66327 2.47509 6.07781 2.55161 6.40944 2.70467C6.74108 2.85135 6.9898 3.05225 7.15561 3.30735C7.32144 3.55607 7.40434 3.83669 7.40434 4.14919C7.40434 4.38516 7.34694 4.59881 7.23215 4.79012C7.11097 4.98145 6.93239 5.16003 6.69642 5.32585C6.46046 5.49166 6.17029 5.64792 5.82589 5.7946C5.4815 5.94128 5.08291 6.08477 4.63011 6.22508C3.87117 6.45468 3.20472 6.71296 2.63074 6.99995C2.05038 7.28694 1.56569 7.60901 1.17666 7.96616C0.787628 8.3233 0.49426 8.72826 0.296557 9.18108C0.0988521 9.63388 0 10.1473 0 10.7213C0 11.3271 0.117985 11.8692 0.353954 12.3475C0.589923 12.8258 0.931122 13.2308 1.37755 13.5624C1.82398 13.8942 2.35651 14.1461 2.97513 14.3182C3.59375 14.4904 4.28571 14.5764 5.05102 14.5764C5.73979 14.5764 6.419 14.4871 7.08865 14.3087C7.75829 14.1237 8.36735 13.8463 8.91582 13.4764C9.45791 13.1064 9.89158 12.6345 10.2168 12.0605C10.5421 11.4866 10.7047 10.8073 10.7047 10.0229H7.82526C7.82526 10.4566 7.75829 10.8233 7.62436 11.123C7.49043 11.4228 7.3023 11.6651 7.05995 11.8501C6.81123 12.035 6.51786 12.169 6.17985 12.2519C5.83546 12.3348 5.45918 12.3762 5.05102 12.3762C4.55357 12.3762 4.1454 12.3061 3.82653 12.1658C3.50127 12.0255 3.26212 11.8309 3.10906 11.5822C2.94962 11.3335 2.86989 11.0529 2.86989 10.7404Z" fill="white"/>
</svg>
